<svg width="52" height="52" viewBox="0 0 52 52" fill="none" xmlns="http://www.w3.org/2000/svg">
<path d="M26.0201 21.3594C23.4487 21.3594 21.3996 23.4487 21.3996 25.9799C21.3996 28.5513 23.4487 30.6004 26.0201 30.6004C28.5513 30.6004 30.6406 28.5513 30.6406 25.9799C30.6406 23.4487 28.5513 21.3594 26.0201 21.3594ZM26.0201 28.9933C24.3728 28.9933 23.0067 27.6674 23.0067 25.9799C23.0067 24.3326 24.3326 23.0067 26.0201 23.0067C27.6674 23.0067 28.9933 24.3326 28.9933 25.9799C28.9933 27.6674 27.6674 28.9933 26.0201 28.9933ZM31.8862 21.1987C31.8862 20.596 31.404 20.1138 30.8013 20.1138C30.1987 20.1138 29.7165 20.596 29.7165 21.1987C29.7165 21.8013 30.1987 22.2835 30.8013 22.2835C31.404 22.2835 31.8862 21.8013 31.8862 21.1987ZM34.9397 22.2835C34.8594 20.8371 34.5379 19.5513 33.4933 18.5067C32.4487 17.4621 31.1629 17.1406 29.7165 17.0603C28.2299 16.9799 23.7701 16.9799 22.2835 17.0603C20.8371 17.1406 19.5915 17.4621 18.5067 18.5067C17.4621 19.5513 17.1406 20.8371 17.0603 22.2835C16.9799 23.7701 16.9799 28.2299 17.0603 29.7165C17.1406 31.1629 17.4621 32.4085 18.5067 33.4933C19.5915 34.5379 20.8371 34.8594 22.2835 34.9397C23.7701 35.0201 28.2299 35.0201 29.7165 34.9397C31.1629 34.8594 32.4487 34.5379 33.4933 33.4933C34.5379 32.4085 34.8594 31.1629 34.9397 29.7165C35.0201 28.2299 35.0201 23.7701 34.9397 22.2835ZM33.0112 31.2835C32.7299 32.0871 32.0871 32.6897 31.3237 33.0112C30.1183 33.4933 27.3058 33.3728 26.0201 33.3728C24.6942 33.3728 21.8817 33.4933 20.7165 33.0112C19.9129 32.6897 19.3103 32.0871 18.9888 31.2835C18.5067 30.1183 18.6272 27.3058 18.6272 25.9799C18.6272 24.6942 18.5067 21.8817 18.9888 20.6763C19.3103 19.9129 19.9129 19.3103 20.7165 18.9888C21.8817 18.5067 24.6942 18.6272 26.0201 18.6272C27.3058 18.6272 30.1183 18.5067 31.3237 18.9888C32.0871 19.2701 32.6897 19.9129 33.0112 20.6763C33.4933 21.8817 33.3728 24.6942 33.3728 25.9799C33.3728 27.3058 33.4933 30.1183 33.0112 31.2835Z" fill="#192040"/>
<rect x="0.5" y="0.5" width="51" height="51" rx="25.5" stroke="#EDEDF2"/>
</svg>
