<svg width="64" height="64" viewBox="0 0 64 64" fill="none" xmlns="http://www.w3.org/2000/svg">
<rect width="64" height="64" rx="32" fill="#FF2E51"/>
<path d="M38.7812 37.8789L35.1172 34.2148C35.9102 33.2578 36.3477 32.0273 36.3477 30.6875C36.3477 27.5703 33.7773 25 30.6602 25C27.5156 25 25 27.5703 25 30.6875C25 33.832 27.543 36.375 30.6602 36.375C31.9727 36.375 33.2031 35.9375 34.1875 35.1445L37.8516 38.8086C37.9883 38.9453 38.1523 39 38.3438 39C38.5078 39 38.6719 38.9453 38.7812 38.8086C39.0547 38.5625 39.0547 38.1523 38.7812 37.8789ZM26.3125 30.6875C26.3125 28.2812 28.2539 26.3125 30.6875 26.3125C33.0938 26.3125 35.0625 28.2812 35.0625 30.6875C35.0625 33.1211 33.0938 35.0625 30.6875 35.0625C28.2539 35.0625 26.3125 33.1211 26.3125 30.6875Z" fill="white"/>
</svg>
