<svg width="52" height="52" viewBox="0 0 52 52" fill="none" xmlns="http://www.w3.org/2000/svg">
<path d="M26.8711 31.2451C27.3278 31.2451 27.5146 30.9406 27.5093 30.5588C27.4861 29.1212 28.0448 28.3472 29.0535 29.3559C30.1695 30.4718 30.4004 31.2451 31.7556 31.2451H34.1555C34.7615 31.2451 35 31.0501 35 30.7441C35 30.0969 33.9343 28.9547 33.0313 28.1162C31.7669 26.9425 31.7076 26.9147 32.7966 25.5018C34.1473 23.7476 35.9142 21.5 34.3513 21.5H31.3657C30.7867 21.5 30.7447 21.8262 30.5384 22.3122C29.7922 24.0724 28.374 26.3523 27.8355 26.0035C27.2723 25.6398 27.5303 24.1991 27.5731 22.0579C27.5843 21.4925 27.5813 21.1047 26.7173 20.9037C26.2456 20.795 25.7866 20.75 25.3607 20.75C23.656 20.75 22.48 21.4647 23.1482 21.5892C24.3264 21.809 24.2132 24.3581 23.9387 25.4591C23.4602 27.376 21.6618 23.9411 20.9126 22.2304C20.7318 21.8195 20.6763 21.5 20.0314 21.5H17.5902C17.2212 21.5 17 21.62 17 21.887C17 22.3384 19.2199 26.9267 21.3393 29.2141C23.4062 31.4453 25.4491 31.2451 26.8711 31.2451Z" fill="#192040"/>
<rect x="0.5" y="0.5" width="51" height="51" rx="25.5" stroke="#EDEDF2"/>
</svg>
